<?xml version="1.0" standalone="no"?>
<!DOCTYPE svg PUBLIC "-//W3C//DTD SVG 20010904//EN"
 "http://www.w3.org/TR/2001/REC-SVG-20010904/DTD/svg10.dtd">
<svg version="1.0" xmlns="http://www.w3.org/2000/svg"
 width="651.000000pt" height="898.000000pt" viewBox="0 0 651.000000 898.000000"
 preserveAspectRatio="xMidYMid meet">
<metadata>
Created by potrace 1.16, written by Peter Selinger 2001-2019
</metadata>
<g transform="translate(0.000000,898.000000) scale(0.100000,-0.100000)"
fill="#000000" stroke="none">
<path d="M3740 8963 c-19 -3 -39 -8 -45 -13 -5 -4 -25 -11 -42 -15 -18 -3 -33
-10 -33 -15 0 -4 -12 -11 -26 -14 -14 -4 -33 -12 -41 -19 -41 -32 -182 -171
-178 -175 2 -3 -5 -13 -17 -24 -22 -19 -43 -50 -54 -80 -3 -10 -10 -18 -14
-18 -4 0 -10 -8 -14 -17 -3 -10 -17 -36 -31 -58 -13 -22 -27 -48 -31 -57 -3
-10 -10 -18 -14 -18 -4 0 -11 -12 -15 -27 -4 -16 -22 -47 -41 -70 -20 -24 -32
-43 -29 -43 6 0 -8 -19 -55 -77 -6 -7 -10 -16 -10 -20 0 -5 -35 -43 -78 -86
-64 -63 -83 -77 -109 -77 -18 0 -34 -4 -37 -9 -3 -5 -60 -12 -126 -16 -66 -4
-120 -11 -120 -15 0 -4 -39 -10 -86 -13 -47 -3 -93 -12 -102 -19 -20 -17 -209
-18 -243 -1 -13 6 -31 14 -39 18 -45 19 -250 155 -250 166 0 4 -8 10 -17 13
-22 8 -56 28 -75 44 -28 23 -133 72 -155 72 -12 0 -24 4 -27 9 -3 5 -34 12
-68 16 -34 4 -71 12 -83 18 -45 23 -54 26 -101 32 -27 4 -55 12 -62 18 -7 5
-65 12 -130 15 -110 4 -121 3 -172 -21 -30 -13 -68 -39 -85 -56 -16 -17 -34
-31 -38 -31 -10 0 -71 -43 -75 -52 -2 -5 -9 -8 -16 -8 -7 0 -21 -9 -31 -20
-10 -11 -24 -20 -31 -20 -7 0 -14 -3 -16 -7 -5 -12 -66 -53 -78 -53 -5 0 -10
-4 -10 -8 0 -5 -12 -14 -27 -21 -15 -7 -33 -21 -41 -32 -7 -10 -20 -19 -28
-19 -8 0 -14 -5 -14 -10 0 -6 -12 -15 -26 -20 -15 -6 -35 -22 -46 -35 -11 -14
-24 -25 -30 -25 -6 0 -27 -17 -48 -39 -21 -21 -42 -40 -48 -42 -18 -7 -122
-110 -122 -123 -1 -6 -14 -22 -30 -36 -17 -13 -30 -30 -30 -37 0 -7 -4 -13
-10 -13 -5 0 -12 -11 -16 -25 -3 -14 -10 -25 -15 -25 -5 0 -9 -5 -9 -12 0 -6
-8 -20 -18 -31 -15 -17 -17 -40 -16 -184 0 -105 4 -167 11 -171 6 -4 14 -33
18 -64 4 -32 11 -58 15 -58 4 0 10 -18 14 -40 3 -23 10 -49 15 -58 26 -51 56
-118 57 -127 4 -26 17 -55 25 -55 5 0 9 -8 9 -18 0 -9 20 -58 45 -107 25 -50
45 -94 45 -100 0 -5 16 -41 35 -78 19 -38 35 -77 35 -88 0 -10 5 -19 10 -19
12 0 14 -147 1 -154 -4 -3 -12 -69 -16 -146 -4 -77 -11 -142 -15 -145 -4 -3
-11 -68 -15 -145 -4 -77 -11 -143 -15 -145 -4 -3 -11 -66 -15 -140 -4 -74 -11
-135 -15 -135 -4 0 -11 -61 -15 -135 -4 -74 -10 -135 -15 -135 -4 0 -10 -64
-14 -142 -4 -79 -11 -147 -16 -153 -4 -5 -11 -67 -15 -138 -4 -70 -11 -130
-16 -133 -5 -3 -9 -36 -9 -73 0 -37 -3 -71 -7 -75 -4 -4 -6 -38 -4 -76 1 -41
-2 -70 -8 -74 -6 -4 -11 -39 -11 -81 0 -41 -5 -77 -11 -80 -6 -4 -9 -37 -8
-81 1 -41 -1 -77 -4 -81 -4 -3 -7 -45 -7 -93 0 -47 -4 -90 -9 -95 -5 -6 -13
-98 -16 -205 -4 -107 -11 -199 -15 -205 -4 -5 -10 -172 -14 -370 -5 -264 -10
-361 -18 -367 -17 -10 -19 -945 -2 -956 6 -4 14 -45 18 -91 4 -47 11 -90 15
-95 5 -6 12 -37 16 -68 4 -32 11 -58 16 -58 5 0 9 -13 9 -29 0 -17 5 -33 10
-36 6 -4 8 -15 5 -26 -4 -11 -2 -19 4 -19 6 0 11 -8 11 -19 0 -10 7 -24 15
-31 8 -7 15 -19 15 -26 0 -17 314 -334 330 -334 7 0 42 -27 78 -60 37 -33 70
-60 75 -60 5 0 29 -17 55 -39 26 -21 63 -47 82 -57 19 -11 43 -28 55 -39 21
-21 46 -38 83 -57 12 -6 22 -17 22 -25 0 -7 8 -13 19 -13 10 0 24 -7 31 -15 7
-8 17 -15 23 -15 5 0 20 -11 33 -25 13 -14 26 -25 30 -25 7 0 58 -42 106 -85
15 -14 30 -25 34 -25 7 0 65 -50 145 -125 25 -23 56 -46 69 -50 13 -4 30 -13
37 -19 31 -28 41 -33 83 -45 25 -7 72 -17 105 -23 71 -11 314 -3 329 12 5 5
22 10 37 10 14 0 55 9 89 20 34 11 77 20 94 20 18 0 36 4 41 8 6 5 48 17 95
26 47 10 92 22 101 26 9 5 53 12 98 15 45 4 84 12 87 16 7 12 44 12 44 0 0 -4
27 -11 60 -14 33 -4 68 -11 77 -16 33 -18 177 -35 308 -35 131 -1 158 2 206
21 14 6 45 16 70 23 24 7 51 16 60 20 9 5 37 11 63 15 25 4 46 11 46 16 0 4
20 11 45 15 25 3 45 10 45 14 0 4 20 11 45 14 25 4 45 11 45 16 0 4 22 11 50
15 27 4 52 11 55 15 3 5 26 12 50 16 25 3 45 10 45 15 0 4 20 11 45 15 25 3
45 10 45 14 0 4 21 11 46 15 26 4 55 11 65 16 11 5 27 13 38 18 10 5 35 13 55
16 20 4 39 11 41 16 3 4 27 11 53 15 26 3 52 10 57 14 6 5 27 11 48 15 20 4
39 11 42 15 3 5 23 11 45 15 22 4 42 11 45 15 3 5 27 12 53 16 26 3 52 10 57
14 6 4 26 11 45 15 19 4 40 11 45 15 6 4 26 11 45 15 19 4 40 11 45 15 6 4 26
11 45 15 19 4 42 11 52 16 10 5 26 13 36 18 10 5 33 12 52 16 19 4 40 11 45
15 6 4 26 11 45 15 19 4 40 11 45 15 6 4 31 11 57 14 26 4 50 11 53 15 2 5 22
12 42 16 21 4 43 10 48 14 6 4 44 17 85 30 41 13 89 29 107 37 17 8 40 14 52
14 12 0 21 5 21 10 0 6 13 10 28 10 16 0 37 7 48 15 10 8 27 15 37 15 9 0 17
5 17 11 0 6 9 8 20 4 11 -4 20 -2 20 4 0 6 11 11 25 11 14 0 25 5 25 10 0 6
10 10 23 10 12 0 34 6 48 14 14 7 37 16 52 20 15 3 27 11 27 16 0 6 9 10 20
10 11 0 20 5 20 11 0 5 16 17 35 25 20 8 44 23 55 34 11 11 27 20 35 20 8 0
15 5 15 10 0 6 18 28 40 50 22 22 40 44 40 49 0 6 8 16 18 23 18 13 52 76 52
97 0 6 5 11 10 11 6 0 10 9 10 19 0 11 5 23 10 26 6 4 8 15 5 26 -4 11 -2 19
4 19 6 0 11 21 11 49 0 28 5 53 11 57 6 4 9 33 8 74 -2 38 0 72 4 76 4 4 7 42
7 84 0 42 4 80 9 86 5 5 13 126 17 269 3 143 10 262 14 265 5 3 11 192 15 420
4 228 11 417 16 420 14 9 16 570 2 578 -7 4 -15 27 -19 50 -4 23 -10 42 -14
42 -5 0 -11 14 -15 30 -8 35 -50 121 -81 165 -11 17 -24 38 -27 48 -4 9 -11
17 -16 17 -5 0 -12 13 -16 29 -3 16 -13 35 -21 42 -8 6 -14 18 -14 25 0 8 -4
14 -9 14 -5 0 -17 15 -26 33 -14 27 -18 77 -22 315 -3 155 -9 282 -13 282 -4
0 -9 209 -13 465 -3 271 -9 471 -15 478 -5 7 -13 64 -16 127 -4 63 -11 117
-17 118 -5 2 -9 23 -9 47 0 24 -4 47 -10 50 -5 3 -8 19 -6 36 2 16 0 32 -5 35
-5 3 -9 23 -9 45 0 22 -5 39 -11 39 -7 0 -9 10 -7 25 3 14 1 28 -3 31 -5 3 -9
18 -9 35 0 16 -4 29 -9 29 -5 0 -12 20 -15 45 -4 24 -11 47 -15 50 -5 2 -12
21 -15 40 -4 19 -11 35 -16 35 -6 0 -10 8 -10 18 0 9 -9 34 -20 55 -11 20 -20
46 -20 57 0 11 -4 20 -9 20 -5 0 -12 14 -16 30 -4 17 -10 30 -14 30 -4 0 -20
24 -34 53 -14 30 -33 60 -42 67 -8 7 -15 17 -15 23 0 5 -20 34 -45 63 -25 28
-45 56 -45 61 0 16 -205 210 -256 241 -28 18 -55 32 -60 32 -5 0 -27 9 -48 21
-21 11 -45 18 -53 15 -7 -3 -16 0 -19 8 -3 7 -16 14 -30 14 -13 0 -31 5 -39
12 -9 7 -32 14 -53 16 -20 2 -48 9 -62 15 -33 15 -74 33 -130 55 -25 10 -50
22 -55 28 -11 12 -42 32 -64 43 -17 8 -81 71 -81 80 0 4 -7 14 -15 23 -12 13
-15 57 -15 227 -1 122 -5 213 -11 215 -5 2 -11 47 -14 100 -2 54 -9 106 -14
117 -6 11 -11 31 -11 45 0 14 -4 27 -9 30 -4 3 -6 17 -3 31 2 14 0 25 -6 25
-5 0 -13 16 -16 35 -4 19 -13 47 -21 62 -8 15 -15 34 -15 41 0 6 -4 12 -9 12
-5 0 -12 12 -16 27 -3 15 -10 30 -13 33 -4 3 -12 14 -18 24 -6 11 -19 24 -30
30 -10 6 -24 18 -31 28 -7 9 -33 26 -58 38 -25 12 -45 26 -45 30 0 5 -15 12
-32 15 -18 4 -37 11 -43 15 -5 4 -26 11 -45 15 -19 4 -40 11 -45 15 -6 5 -55
12 -110 16 -55 4 -102 10 -105 14 -6 8 -240 19 -290 13z m295 -213 c11 -5 59
-12 108 -15 48 -4 87 -11 87 -16 0 -5 12 -9 28 -9 15 0 40 -7 56 -15 15 -8 34
-15 41 -15 6 0 20 -9 30 -20 10 -11 24 -20 32 -20 7 0 13 -4 13 -9 0 -5 12
-23 26 -40 14 -17 28 -46 31 -66 3 -19 10 -38 14 -41 13 -8 11 -461 -1 -469
-6 -3 -10 -50 -10 -104 0 -54 -3 -101 -7 -105 -5 -4 -8 -19 -8 -33 0 -31 -25
-49 -51 -38 -11 5 -43 14 -71 22 -29 7 -77 19 -105 26 -57 15 -84 24 -109 37
-9 5 -33 12 -53 15 -20 4 -38 11 -41 15 -3 5 -23 11 -45 15 -22 4 -42 10 -45
15 -3 5 -23 11 -45 15 -22 4 -42 11 -46 16 -3 5 -14 9 -25 9 -12 0 -19 7 -19
18 0 10 -5 23 -11 29 -18 18 9 426 32 466 6 10 13 91 16 179 l6 159 76 -6 c42
-3 85 -10 96 -15z m-355 -76 c0 -18 5 -36 10 -39 6 -3 10 -24 10 -45 0 -21 -4
-42 -10 -45 -5 -3 -10 -21 -10 -40 0 -19 -4 -36 -9 -39 -4 -3 -6 -17 -3 -31 2
-15 0 -25 -7 -25 -6 0 -11 -13 -11 -29 0 -17 -5 -33 -11 -37 -6 -3 -8 -17 -5
-29 3 -13 2 -27 -4 -30 -5 -3 -10 -19 -10 -34 0 -15 -11 -49 -24 -74 -14 -25
-28 -66 -31 -91 l-7 -46 -62 1 c-77 0 -203 13 -211 20 -3 3 19 55 50 115 30
60 55 112 55 116 0 15 35 88 42 88 3 0 9 14 13 30 4 17 11 30 16 30 4 0 20 24
34 53 40 81 52 98 113 166 23 27 42 54 42 61 0 10 3 10 15 0 8 -7 15 -27 15
-46z m-2540 -443 c0 -4 19 -11 41 -14 23 -3 45 -10 48 -15 3 -5 24 -12 46 -16
22 -4 45 -11 50 -16 6 -4 24 -10 40 -14 40 -10 212 -94 251 -123 17 -13 34
-23 38 -23 10 0 79 -52 89 -67 4 -7 14 -13 21 -13 19 0 79 -67 72 -79 -4 -6
-18 -11 -32 -11 -14 0 -44 -11 -68 -24 -23 -13 -57 -27 -74 -31 -18 -3 -32
-10 -32 -15 0 -5 -57 -37 -127 -72 l-128 -63 -108 -3 -107 -4 -54 36 c-30 20
-59 36 -65 36 -6 0 -11 5 -11 10 0 6 -8 13 -17 17 -10 3 -25 12 -33 19 -28 23
-231 124 -250 124 -11 0 -20 4 -20 10 0 5 -18 13 -40 16 -45 7 -52 21 -15 30
14 3 25 10 25 16 0 13 146 158 159 158 6 0 11 7 11 15 0 8 8 15 17 15 10 0 27
10 38 23 31 35 69 56 114 63 23 4 41 10 41 15 0 5 18 9 40 9 22 0 40 -4 40 -9z
m2075 -338 c-16 -3 -34 -8 -40 -13 -5 -4 -32 -11 -60 -15 -27 -4 -54 -11 -60
-15 -5 -4 -32 -11 -59 -15 -27 -3 -56 -10 -65 -15 -18 -9 -101 -30 -146 -38
-16 -2 -34 -8 -40 -12 -5 -5 -32 -11 -60 -15 -27 -4 -54 -11 -60 -15 -5 -4
-34 -11 -62 -15 -29 -4 -55 -11 -58 -15 -3 -5 -27 -12 -53 -16 -26 -3 -52 -10
-58 -15 -6 -5 -25 -10 -42 -12 -17 -2 -37 -9 -44 -15 -8 -6 -34 -14 -58 -18
-25 -4 -47 -11 -50 -15 -3 -4 -22 -10 -42 -12 -20 -2 -48 -11 -62 -21 -15 -9
-30 -14 -35 -12 -5 3 -14 -1 -21 -9 -7 -8 -19 -15 -26 -15 -8 0 -22 -4 -32 -9
-22 -12 -113 -44 -132 -48 -8 -1 -16 -7 -18 -12 -2 -6 -14 -11 -26 -11 -12 0
-26 -4 -31 -9 -6 -5 -64 -37 -130 -71 -66 -34 -138 -72 -160 -86 -22 -13 -48
-27 -57 -30 -10 -4 -18 -10 -18 -15 0 -5 -10 -14 -22 -19 -36 -16 -60 -33 -87
-62 -14 -16 -30 -28 -36 -28 -6 0 -24 -13 -40 -30 -16 -16 -33 -30 -38 -30
-11 0 -127 -117 -127 -128 0 -5 -16 -23 -35 -42 -19 -19 -35 -38 -35 -43 0 -5
-10 -19 -23 -31 -13 -12 -26 -28 -30 -36 -11 -22 -29 -52 -52 -85 -12 -17 -26
-41 -33 -55 -7 -14 -23 -43 -37 -65 -13 -22 -24 -50 -25 -62 0 -13 -4 -23 -9
-23 -5 0 -12 -13 -16 -30 -4 -16 -10 -30 -15 -30 -4 0 -11 -20 -14 -45 -4 -25
-11 -45 -17 -45 -5 0 -9 -13 -9 -29 0 -17 -4 -32 -9 -35 -4 -3 -6 -16 -4 -30
3 -13 0 -27 -6 -30 -6 -4 -11 -18 -11 -31 0 -13 -5 -27 -11 -31 -7 -4 -9 -22
-6 -45 3 -22 1 -42 -4 -45 -5 -3 -9 -27 -9 -54 0 -27 -4 -51 -9 -54 -5 -3 -12
-53 -16 -111 -4 -58 -11 -105 -15 -105 -4 0 -11 -65 -15 -145 -4 -80 -11 -145
-15 -145 -4 0 -11 -71 -15 -157 -4 -87 -11 -165 -15 -173 -5 -8 -11 -103 -15
-210 -4 -107 -11 -199 -15 -205 -5 -5 -11 -85 -15 -177 -4 -93 -12 -168 -16
-168 -5 0 -9 -27 -9 -60 0 -45 -4 -60 -14 -60 -8 0 -16 7 -20 15 -3 8 -11 15
-18 15 -32 0 -39 38 -32 176 4 74 11 137 16 140 4 3 8 66 8 140 0 74 3 134 8
134 4 0 6 94 4 210 -2 143 0 210 7 210 7 0 11 53 11 154 0 98 4 157 11 161 6
4 9 44 8 101 -1 52 1 98 5 101 3 3 6 39 6 79 0 40 4 75 9 78 5 3 12 49 16 101
4 52 11 97 15 100 5 3 11 39 15 80 4 41 11 75 15 75 5 0 11 27 15 60 4 33 11
60 15 60 4 0 11 20 14 45 4 25 11 45 15 45 5 0 12 20 15 45 4 24 11 47 15 50
5 2 12 21 15 40 4 19 11 35 15 35 8 0 17 20 26 55 8 32 18 55 25 55 5 0 11 14
15 30 4 17 11 30 16 30 4 0 18 20 29 45 11 25 24 45 29 45 5 0 12 8 15 18 8
21 26 52 46 76 36 46 245 256 253 256 5 0 20 11 33 25 13 14 27 25 32 25 5 0
17 9 27 20 10 11 24 20 32 20 7 0 13 5 13 10 0 6 9 10 19 10 11 0 26 7 35 15
8 8 19 15 24 15 5 0 15 7 22 15 7 8 16 13 20 10 4 -3 13 2 20 10 7 8 18 15 24
15 6 0 49 19 96 41 47 23 98 48 113 55 16 8 34 14 40 14 7 0 24 6 39 14 15 8
42 17 60 21 18 4 38 11 43 15 6 4 26 11 45 15 19 4 40 11 45 15 6 4 31 11 57
14 26 4 50 11 53 17 4 5 17 9 30 9 13 0 26 4 29 9 3 5 34 12 68 16 35 4 68 11
74 16 6 5 37 11 70 15 32 4 64 10 69 15 6 4 52 11 103 15 51 4 92 10 92 15 0
4 59 10 130 14 72 4 130 11 130 16 0 8 123 14 325 15 61 1 97 -1 80 -3z m540
-103 c3 -5 21 -10 39 -10 49 0 96 -11 90 -21 -3 -5 -16 -9 -30 -9 -13 0 -24
-4 -24 -9 0 -5 -25 -13 -55 -16 -30 -4 -58 -11 -60 -16 -3 -4 -26 -11 -50 -15
-25 -3 -48 -10 -51 -15 -3 -5 -16 -9 -30 -9 -14 0 -40 -6 -58 -14 -19 -8 -51
-16 -73 -18 -21 -1 -44 -9 -51 -15 -7 -7 -24 -13 -37 -13 -13 0 -36 -5 -52
-12 -31 -13 -43 -16 -88 -21 -17 -2 -39 -8 -50 -14 -19 -10 -87 -31 -127 -38
-10 -2 -24 -7 -31 -12 -13 -8 -29 -12 -62 -17 -11 -1 -31 -8 -45 -13 -14 -6
-52 -19 -85 -28 -33 -9 -74 -23 -90 -30 -17 -8 -41 -16 -55 -18 -14 -2 -38 -9
-53 -15 -16 -7 -37 -12 -48 -12 -11 0 -22 -6 -25 -14 -3 -8 -12 -12 -20 -9 -8
3 -26 -3 -40 -12 -15 -9 -40 -19 -56 -22 -17 -2 -45 -13 -64 -24 -19 -10 -38
-18 -42 -17 -10 2 -37 -9 -95 -38 -27 -13 -53 -24 -59 -24 -14 0 -116 -50
-120 -58 -2 -5 -23 -18 -48 -30 -63 -31 -77 -40 -141 -94 -31 -27 -60 -48 -64
-48 -10 0 -186 -163 -181 -168 3 -2 -20 -27 -50 -54 -30 -28 -54 -56 -54 -63
0 -6 -14 -24 -30 -40 -16 -16 -30 -35 -30 -42 0 -7 -4 -13 -9 -13 -10 0 -34
-38 -47 -72 -3 -10 -10 -18 -15 -18 -5 0 -18 -20 -29 -45 -11 -25 -25 -45 -29
-45 -5 0 -12 -13 -16 -30 -4 -16 -10 -30 -15 -30 -5 0 -11 -13 -15 -30 -4 -16
-11 -30 -16 -30 -5 0 -9 -5 -9 -11 0 -12 -23 -68 -46 -111 -8 -14 -14 -36 -14
-47 0 -12 -5 -21 -11 -21 -6 0 -9 -7 -6 -15 4 -8 2 -17 -3 -20 -6 -4 -10 -19
-10 -34 0 -15 -4 -31 -9 -36 -5 -6 -14 -39 -21 -75 -6 -36 -15 -87 -20 -115
-5 -27 -9 -71 -9 -97 -1 -27 -5 -48 -10 -48 -5 0 -12 -47 -16 -105 -4 -58 -11
-105 -15 -105 -5 0 -11 -58 -15 -130 -4 -71 -11 -130 -15 -130 -5 0 -11 -57
-15 -127 -4 -71 -11 -132 -15 -138 -4 -5 -11 -75 -15 -155 -4 -80 -11 -149
-15 -155 -4 -5 -11 -80 -15 -165 -4 -85 -11 -160 -16 -166 -4 -5 -9 -41 -10
-80 -1 -38 -5 -73 -9 -79 -4 -5 -11 -75 -15 -155 -4 -80 -11 -150 -16 -157 -6
-6 -13 -104 -16 -217 -3 -113 -10 -206 -15 -206 -11 0 -10 -47 1 -54 4 -3 11
-26 14 -52 4 -36 13 -54 43 -85 21 -21 46 -39 55 -39 22 0 61 20 84 44 33 33
74 129 81 188 4 32 11 61 15 64 5 3 9 34 9 69 0 60 1 63 23 58 12 -3 36 -11
54 -19 17 -8 37 -14 45 -14 7 0 31 -16 53 -35 22 -19 43 -35 47 -35 15 0 60
-50 79 -86 15 -30 19 -59 19 -136 0 -59 -4 -98 -10 -98 -6 0 -10 -44 -10 -113
0 -63 -3 -116 -6 -120 -4 -3 -6 -52 -5 -107 1 -56 -2 -107 -7 -113 -6 -7 -13
-108 -17 -225 -5 -141 -12 -215 -19 -218 -7 -3 -12 -73 -14 -216 -2 -117 -7
-217 -12 -223 -4 -5 -11 -110 -15 -232 -4 -123 -11 -223 -15 -223 -4 0 -11
-98 -15 -217 -4 -120 -11 -222 -15 -228 -4 -5 -10 -68 -12 -138 -2 -71 -8
-131 -13 -135 -6 -4 -15 -16 -21 -27 -6 -11 -20 -24 -32 -30 -12 -5 -22 -13
-22 -17 0 -5 -28 -8 -61 -8 -54 0 -65 3 -89 28 -60 59 -108 100 -127 106 -11
4 -35 20 -53 36 -19 17 -37 30 -42 30 -5 0 -19 10 -31 21 -12 12 -35 27 -52
35 -16 7 -43 24 -59 38 -16 15 -35 26 -42 26 -7 0 -21 11 -32 25 -11 14 -23
25 -27 25 -4 0 -21 14 -37 30 -15 17 -33 30 -39 30 -17 0 -118 101 -136 134
-8 16 -23 37 -32 48 -10 10 -24 31 -32 46 -8 15 -20 33 -27 40 -6 7 -12 22
-12 33 0 10 -4 19 -9 19 -5 0 -12 25 -16 55 -3 30 -11 57 -16 60 -12 8 -12
355 0 355 5 0 12 151 16 335 4 184 11 335 15 335 4 0 11 146 15 325 4 179 11
327 15 330 4 3 11 156 15 340 4 184 11 335 16 335 5 0 9 69 9 153 0 83 3 161
6 173 8 28 48 20 89 -18 16 -15 36 -28 43 -28 6 0 12 -4 12 -10 0 -16 52 -11
72 7 10 9 18 30 18 49 0 18 4 35 9 38 5 3 12 54 16 113 4 60 11 113 15 118 5
6 12 78 16 160 3 83 10 155 14 160 4 6 11 99 15 208 4 108 11 197 16 197 5 0
9 40 9 89 0 53 4 93 11 96 6 4 9 32 8 66 -1 32 1 62 4 66 4 3 7 30 7 60 0 29
4 61 10 71 5 9 12 61 15 115 4 53 11 97 15 97 5 0 11 34 15 75 4 41 11 75 15
75 5 0 11 27 15 60 4 33 11 62 16 65 4 3 11 28 15 55 4 28 10 50 14 50 4 0 11
20 14 45 4 25 11 45 16 45 5 0 11 14 15 31 6 27 40 104 66 149 4 8 25 48 45
88 21 39 41 72 46 72 4 0 8 5 8 10 0 12 41 73 53 78 4 2 7 9 7 16 0 7 14 25
30 41 16 16 30 33 30 38 0 10 189 197 199 197 4 0 25 18 46 40 21 22 43 40 48
40 5 0 25 15 43 33 42 42 100 87 110 87 4 0 14 7 23 15 35 33 79 65 90 65 6 0
11 5 11 10 0 6 12 15 28 21 48 17 132 62 143 76 7 7 19 13 28 13 9 0 43 14 76
30 33 16 67 30 76 30 9 0 19 3 23 7 10 11 79 32 87 28 4 -3 10 2 13 11 3 8 11
12 16 9 6 -4 21 0 33 8 12 8 36 17 52 20 86 17 141 32 146 40 3 5 26 11 50 14
24 3 49 9 54 13 6 4 34 11 62 15 29 4 55 11 58 15 3 4 33 11 67 15 35 4 68 11
73 15 6 4 38 11 73 15 34 4 62 10 62 15 0 4 33 11 73 15 39 3 78 11 84 17 7 6
39 12 70 15 32 2 60 8 63 12 3 5 21 11 40 14 19 3 53 10 75 16 22 6 92 11 155
11 63 0 122 5 130 10 20 13 67 13 75 0z m-3165 -79 c0 -4 19 -11 42 -14 24 -3
44 -11 46 -16 2 -6 13 -11 24 -11 23 0 67 -23 119 -62 20 -16 41 -28 47 -28 5
0 41 -30 81 -66 60 -55 69 -68 58 -81 -44 -56 -183 -193 -197 -193 -22 0 -148
134 -156 165 -3 14 -11 29 -18 33 -27 17 -66 116 -72 183 -4 38 -11 69 -15 69
-5 0 -9 7 -9 15 0 9 9 15 25 15 14 0 25 -4 25 -9z m3643 -77 c51 -7 54 -24 4
-25 -82 0 -123 -5 -132 -15 -5 -7 -44 -15 -85 -19 -41 -4 -79 -10 -85 -13 -11
-7 -33 -10 -105 -16 -25 -2 -55 -7 -65 -13 -11 -5 -27 -9 -35 -8 -8 1 -23 -3
-33 -8 -24 -11 -52 -17 -103 -21 -23 -2 -48 -7 -55 -12 -16 -10 -31 -13 -79
-17 -19 -1 -41 -6 -48 -11 -8 -5 -28 -10 -45 -12 -18 -1 -59 -10 -92 -19 -33
-9 -64 -17 -70 -18 -5 -2 -15 -6 -21 -9 -11 -8 -60 -19 -84 -20 -8 0 -19 -4
-25 -8 -5 -4 -28 -11 -50 -15 -22 -4 -44 -10 -50 -15 -9 -6 -57 -22 -77 -24
-3 -1 -10 -4 -14 -8 -4 -5 -14 -8 -22 -8 -13 0 -66 -21 -104 -41 -10 -5 -25
-9 -33 -9 -9 0 -33 -9 -53 -19 -20 -11 -122 -61 -225 -113 -211 -104 -227
-113 -236 -125 -8 -10 -39 -30 -68 -43 -13 -5 -23 -14 -23 -20 0 -5 -6 -10
-13 -10 -8 0 -24 -11 -37 -25 -13 -14 -30 -25 -38 -25 -18 0 -375 -357 -368
-369 3 -5 -2 -15 -11 -22 -19 -16 -95 -133 -118 -181 -9 -18 -27 -52 -40 -76
-14 -24 -24 -46 -24 -50 2 -14 -14 -52 -21 -52 -5 0 -11 -13 -15 -30 -4 -16
-10 -30 -15 -30 -4 0 -11 -19 -15 -42 -4 -24 -11 -45 -14 -48 -8 -6 -28 -81
-44 -165 -6 -33 -14 -62 -18 -65 -4 -3 -10 -29 -14 -57 -4 -29 -10 -55 -15
-58 -4 -3 -11 -37 -15 -77 -4 -40 -11 -79 -16 -88 -4 -8 -11 -54 -14 -102 -4
-49 -11 -90 -16 -94 -5 -3 -9 -36 -9 -74 0 -38 -3 -71 -8 -73 -4 -3 -6 -33 -6
-66 1 -34 -3 -64 -7 -67 -5 -3 -9 -38 -9 -78 0 -39 -4 -76 -9 -81 -5 -6 -13
-93 -16 -195 -4 -102 -11 -189 -15 -195 -5 -5 -11 -84 -15 -175 -4 -91 -11
-170 -16 -175 -4 -6 -9 -44 -11 -85 -3 -63 -6 -75 -21 -78 -17 -3 -18 8 -11
230 4 128 10 235 14 238 4 3 11 136 15 295 4 160 10 295 15 300 4 6 11 84 14
175 4 90 11 167 15 170 5 3 11 50 15 105 4 55 11 102 15 105 5 3 11 41 15 85
4 44 11 84 16 90 5 6 12 34 16 63 3 28 10 52 14 52 7 0 15 33 23 101 2 14 11
39 19 57 9 17 19 46 23 63 4 16 13 42 21 57 8 15 14 35 14 45 0 9 5 17 10 17
6 0 10 12 10 27 0 14 6 34 13 42 7 9 22 36 32 61 10 25 24 52 31 60 7 8 16 27
19 43 4 15 11 27 16 27 5 0 15 16 23 35 8 19 20 40 26 47 5 7 24 31 41 53 16
22 35 47 42 55 7 8 12 18 12 22 0 21 182 188 267 244 53 35 99 64 103 64 3 0
21 10 38 23 52 36 64 43 242 130 198 98 239 117 253 117 6 0 27 8 49 19 21 10
65 28 98 40 33 13 68 27 77 32 10 5 26 9 35 9 10 0 31 7 47 15 15 8 34 15 40
15 17 0 147 39 168 50 9 6 36 12 59 15 22 3 45 8 50 11 10 6 40 13 81 19 15 2
32 6 38 10 6 4 23 8 38 11 51 7 60 10 73 21 8 6 25 9 38 7 14 -3 28 1 32 7 6
10 31 15 109 21 8 0 20 4 25 8 6 4 39 11 75 15 36 4 70 11 77 17 6 5 33 11 60
14 60 5 75 8 88 16 6 3 39 9 75 13 36 4 70 11 75 15 9 8 45 13 126 18 14 1 47
-1 72 -4z m-3898 -94 c4 -22 11 -42 16 -46 5 -3 9 -15 9 -28 0 -12 7 -31 15
-42 8 -10 15 -27 15 -36 0 -10 5 -18 12 -18 6 0 9 -2 6 -5 -7 -7 80 -178 114
-227 12 -18 29 -37 36 -41 6 -4 12 -15 12 -24 0 -9 13 -28 29 -44 34 -32 33
-55 -5 -106 -13 -17 -24 -36 -24 -41 0 -5 -9 -17 -20 -27 -11 -10 -20 -24 -20
-32 0 -7 -4 -13 -9 -13 -5 0 -13 -15 -16 -32 -4 -18 -12 -39 -17 -45 -14 -18
-31 -16 -24 2 3 8 2 15 -2 15 -4 0 -16 18 -26 40 -11 22 -23 40 -27 40 -4 0
-10 14 -14 30 -4 17 -10 30 -15 30 -5 0 -11 14 -15 30 -4 17 -10 30 -15 30 -4
0 -11 12 -15 27 -3 15 -16 45 -27 67 -21 41 -41 110 -60 201 -12 57 -3 248 12
253 6 2 10 13 10 23 0 31 19 59 39 59 15 0 21 -10 26 -40z m4308 -29 c4 -1 7
-6 7 -12 0 -5 -4 -8 -9 -5 -5 3 -14 -1 -21 -9 -7 -9 -27 -15 -44 -15 -77 1
-172 -6 -183 -13 -7 -5 -59 -10 -115 -13 -57 -3 -105 -10 -109 -15 -5 -8 -127
-22 -184 -20 -10 0 -24 -4 -30 -9 -5 -4 -46 -11 -90 -15 -44 -3 -85 -10 -91
-15 -6 -5 -43 -13 -82 -16 -40 -4 -72 -10 -72 -14 0 -4 -28 -10 -61 -14 -34
-3 -67 -10 -73 -15 -6 -5 -33 -12 -60 -16 -27 -3 -58 -11 -70 -17 -41 -21 -52
-26 -85 -33 -18 -4 -44 -13 -59 -21 -15 -8 -39 -14 -54 -14 -16 0 -28 -4 -28
-10 0 -5 -8 -10 -18 -10 -22 0 -145 -36 -187 -55 -16 -8 -52 -24 -80 -35 -88
-39 -160 -75 -163 -82 -2 -5 -12 -8 -23 -8 -10 0 -19 -4 -19 -9 0 -5 -16 -15
-35 -21 -19 -6 -35 -16 -35 -21 0 -5 -6 -9 -14 -9 -8 0 -16 -7 -20 -15 -3 -8
-12 -15 -20 -15 -8 0 -30 -13 -48 -30 -18 -16 -39 -30 -46 -30 -8 0 -23 -11
-34 -25 -11 -14 -25 -25 -32 -25 -6 0 -29 -20 -49 -45 -21 -25 -44 -45 -50
-45 -15 0 -117 -99 -117 -113 0 -5 -15 -25 -34 -46 -80 -84 -106 -116 -106
-128 0 -8 -7 -16 -15 -19 -8 -4 -15 -12 -15 -20 0 -8 -4 -14 -10 -14 -5 0 -10
-7 -10 -16 0 -9 -6 -22 -13 -28 -11 -9 -35 -58 -103 -213 -8 -17 -14 -40 -14
-52 0 -12 -4 -21 -9 -21 -5 0 -12 -20 -15 -45 -4 -24 -11 -47 -17 -50 -5 -4
-9 -19 -9 -36 0 -16 -3 -29 -7 -29 -5 0 -9 -12 -10 -27 -3 -44 -15 -93 -23
-93 -4 0 -7 -12 -8 -27 -1 -43 -7 -77 -15 -90 -10 -16 -16 -46 -21 -99 -2 -23
-7 -48 -12 -55 -5 -8 -10 -32 -11 -54 -5 -77 -9 -111 -17 -123 -8 -13 -13 -54
-20 -159 -2 -28 -7 -57 -11 -63 -4 -7 -10 -58 -12 -114 -5 -121 -7 -136 -19
-144 -5 -4 -10 -38 -10 -77 -4 -183 -7 -241 -17 -253 -5 -7 -9 -53 -8 -102 1
-50 -1 -96 -5 -102 -5 -7 -7 -52 -5 -99 1 -54 -2 -89 -8 -94 -7 -4 -11 -47
-11 -109 0 -56 -3 -106 -7 -110 -4 -4 -6 -39 -4 -77 1 -40 -3 -90 -11 -116
l-13 -45 -56 5 c-70 6 -107 35 -116 89 -3 21 -10 41 -14 44 -12 7 -11 387 0
399 5 6 13 64 17 130 3 66 10 125 14 130 5 6 11 84 15 175 4 91 11 170 15 175
4 6 11 87 15 180 4 94 11 175 15 180 4 6 11 64 15 130 4 66 10 125 15 130 4 6
11 55 15 110 4 55 10 105 15 110 4 6 10 34 14 63 4 30 11 61 15 70 5 10 14 42
20 72 14 73 18 88 28 103 4 6 6 19 5 29 -2 9 2 19 8 23 5 3 10 15 10 26 0 10
4 19 9 19 6 0 13 20 17 45 3 25 10 45 15 45 5 0 9 11 9 25 0 13 8 29 18 34 9
6 14 11 10 11 -14 0 36 116 72 165 20 28 40 57 44 65 27 56 49 83 196 232 69
71 131 128 138 128 6 0 12 5 12 10 0 6 10 15 23 20 32 14 61 33 69 46 4 7 20
15 35 19 14 3 37 15 50 25 24 19 68 41 151 76 23 10 42 21 42 26 0 4 10 8 23
8 12 0 39 9 60 20 20 11 44 20 52 20 8 0 15 4 15 9 0 5 17 12 37 16 20 4 46
13 57 21 11 8 30 14 43 14 12 0 24 4 27 9 4 5 24 12 46 16 22 4 42 10 45 15 3
5 23 11 45 15 22 4 42 10 45 15 3 5 24 11 48 15 23 4 47 11 52 14 6 4 37 16
70 25 33 10 69 21 80 26 11 5 44 12 73 15 28 4 52 10 52 15 0 4 26 11 58 15
31 4 59 11 62 15 3 5 34 11 69 14 35 3 69 10 76 16 7 6 35 12 64 15 28 2 57 7
64 12 6 4 30 9 52 10 55 3 104 11 118 20 7 5 30 9 52 10 92 5 138 11 144 19 3
5 29 10 56 11 93 3 160 9 183 17 13 4 52 9 86 10 34 1 69 7 78 12 13 7 93 10
151 5z m459 -198 c7 -6 54 -14 103 -18 50 -4 95 -11 100 -15 6 -4 25 -11 43
-15 17 -3 32 -10 32 -15 0 -4 8 -10 18 -14 24 -8 56 -29 65 -43 4 -7 14 -13
21 -13 7 0 25 -13 41 -30 16 -16 32 -30 37 -30 12 0 48 -33 48 -45 0 -6 18
-29 40 -50 22 -21 40 -45 40 -52 0 -8 6 -16 14 -19 8 -3 18 -19 21 -35 4 -16
10 -29 15 -29 5 0 11 -13 15 -30 4 -16 10 -30 15 -30 8 0 23 -38 21 -52 -1 -5
4 -8 9 -8 6 0 10 -9 10 -19 0 -11 6 -32 14 -48 26 -52 35 -78 41 -120 4 -24
10 -45 15 -48 4 -3 11 -35 15 -72 4 -38 11 -73 16 -79 5 -6 12 -50 15 -97 4
-48 10 -87 15 -87 4 0 10 -58 14 -130 4 -71 11 -130 15 -130 4 0 11 -54 15
-120 4 -66 11 -122 15 -125 4 -3 11 -171 15 -375 4 -203 11 -370 16 -370 5 0
9 -36 9 -80 0 -44 -4 -80 -8 -80 -5 0 -12 -66 -15 -147 -6 -135 -13 -168 -36
-168 -5 0 -33 -20 -62 -45 -30 -25 -56 -45 -59 -46 -3 0 -21 -8 -39 -16 -19
-9 -41 -14 -48 -11 -7 3 -19 1 -26 -5 -6 -5 -46 -13 -87 -17 -41 -3 -79 -10
-85 -15 -11 -9 -77 -20 -114 -20 -13 0 -29 -4 -35 -9 -6 -5 -39 -12 -74 -16
-34 -4 -64 -10 -67 -15 -3 -4 -34 -11 -70 -15 -36 -3 -67 -10 -70 -15 -2 -4
-34 -11 -70 -15 -36 -3 -67 -10 -70 -15 -3 -5 -31 -12 -63 -16 -31 -3 -61 -10
-67 -14 -5 -4 -34 -11 -62 -15 -29 -4 -55 -11 -59 -16 -3 -5 -18 -9 -34 -9
-16 0 -31 -4 -34 -9 -4 -5 -30 -12 -59 -16 -28 -4 -56 -11 -62 -15 -5 -4 -34
-11 -62 -15 -29 -4 -55 -10 -58 -15 -3 -4 -34 -11 -70 -15 -36 -3 -67 -10 -70
-15 -3 -4 -29 -11 -58 -15 -28 -4 -56 -11 -62 -15 -5 -4 -38 -11 -73 -15 -34
-4 -64 -11 -67 -15 -3 -4 -29 -11 -58 -15 -28 -4 -56 -11 -62 -15 -5 -4 -32
-11 -60 -15 -27 -4 -54 -10 -60 -15 -5 -4 -37 -11 -69 -15 -33 -4 -66 -11 -75
-15 -17 -10 -108 -25 -128 -21 -6 1 -14 -3 -18 -9 -3 -5 -21 -10 -40 -10 -19
0 -36 -4 -39 -9 -3 -5 -37 -12 -76 -16 -39 -4 -72 -11 -75 -15 -3 -5 -40 -11
-83 -15 -42 -4 -81 -11 -87 -15 -5 -4 -36 -10 -68 -13 -32 -3 -64 -10 -70 -15
-7 -5 -27 -13 -44 -17 -18 -3 -33 -10 -33 -15 0 -5 -13 -11 -30 -15 -16 -4
-30 -10 -30 -15 0 -4 -12 -11 -27 -15 -15 -3 -30 -10 -33 -13 -7 -9 -68 -52
-74 -52 -7 0 -186 -178 -186 -185 0 -4 -14 -24 -30 -44 -46 -54 -47 -56 -55
-81 -4 -13 -14 -30 -21 -38 -8 -7 -14 -22 -14 -33 0 -10 -4 -19 -9 -19 -5 0
-12 -14 -16 -30 -4 -17 -11 -30 -16 -30 -5 0 -9 -5 -9 -11 0 -6 -6 -25 -14
-42 -18 -42 -29 -70 -31 -82 -2 -14 -14 -46 -26 -68 -5 -10 -7 -22 -4 -27 3
-5 1 -11 -5 -15 -5 -3 -10 -19 -10 -36 0 -16 -4 -29 -9 -29 -6 0 -13 -31 -17
-70 -3 -38 -10 -70 -14 -70 -5 0 -11 -34 -15 -75 -4 -41 -11 -75 -15 -75 -4 0
-11 -39 -15 -87 -4 -49 -11 -92 -15 -98 -4 -5 -11 -59 -15 -120 -4 -60 -12
-116 -19 -124 -8 -10 -12 -202 -14 -695 -2 -404 -7 -685 -13 -690 -14 -15 -11
-79 6 -113 28 -56 48 -66 117 -61 40 3 63 9 66 18 3 8 16 25 29 38 13 13 21
27 19 31 -3 4 3 14 13 23 13 11 20 36 24 88 9 109 23 106 30 -6 3 -53 10 -100
15 -103 5 -3 13 -25 17 -49 4 -23 11 -42 16 -42 5 0 9 -10 9 -23 0 -12 6 -31
14 -42 32 -46 29 -61 -14 -84 -22 -11 -49 -21 -59 -21 -11 0 -21 -3 -23 -7 -5
-12 -93 -53 -111 -53 -9 0 -19 -5 -22 -10 -3 -6 -14 -10 -23 -10 -9 -1 -35 -9
-57 -20 -22 -11 -50 -19 -62 -20 -12 0 -25 -4 -28 -10 -3 -5 -28 -12 -55 -16
-28 -4 -50 -10 -50 -14 0 -4 -34 -11 -75 -15 -41 -4 -77 -11 -81 -16 -7 -12
-221 -12 -229 1 -3 6 -14 10 -24 10 -19 0 -41 38 -41 70 0 11 -4 20 -9 20 -15
0 -20 68 -19 275 2 335 9 520 19 530 5 5 9 55 9 111 0 57 4 105 9 108 5 4 9
51 8 106 0 55 2 103 6 106 4 4 7 54 7 110 0 62 4 105 11 109 6 4 10 51 11 118
0 190 9 351 19 363 6 7 10 54 10 106 1 165 7 363 13 378 2 8 7 67 11 130 11
195 23 373 29 415 2 22 6 122 8 223 1 111 7 186 13 190 5 4 11 52 12 107 3
222 6 280 13 290 4 6 11 91 15 190 4 106 12 183 18 187 6 3 9 38 8 82 -1 42 1
81 6 88 4 7 6 43 4 81 -2 43 1 67 8 67 7 0 11 30 11 83 0 46 3 87 7 91 5 4 6
34 5 66 -2 34 1 60 7 64 6 4 11 37 11 76 0 37 4 70 9 72 10 3 21 104 20 196 0
34 4 62 9 62 5 0 13 48 16 107 4 59 11 112 14 118 4 5 12 44 19 85 16 104 31
171 42 184 5 6 13 29 17 51 4 22 10 42 14 45 3 3 17 34 30 70 13 36 26 67 29
70 3 3 22 35 41 72 19 37 38 68 43 68 4 0 7 5 7 10 0 12 41 73 53 78 4 2 7 10
7 17 0 8 6 18 13 22 7 4 21 22 31 38 23 36 27 41 120 135 84 86 132 130 141
130 8 0 69 43 73 52 6 12 212 108 232 108 11 0 20 5 20 10 0 6 9 10 19 10 11
0 23 5 26 10 4 6 11 8 16 5 5 -4 22 3 38 14 15 11 47 23 70 27 22 4 41 10 41
15 0 4 20 11 45 15 25 3 47 10 50 14 3 5 23 11 45 15 22 4 40 10 40 15 0 4 20
11 45 14 24 4 47 11 50 16 3 4 28 11 55 15 28 4 50 10 50 15 0 4 22 10 50 14
27 4 52 11 55 16 3 4 34 12 70 15 36 4 68 11 70 15 3 5 30 12 60 15 31 4 58
11 61 16 3 5 20 9 39 9 19 0 36 4 39 9 3 4 42 12 86 15 44 4 82 11 85 15 2 5
54 12 115 16 60 3 110 11 110 15 0 13 144 17 522 15 214 -1 342 -6 350 -12z
m878 -3168 c0 -20 -30 -34 -87 -42 -26 -3 -52 -9 -58 -13 -5 -4 -34 -11 -63
-15 -30 -4 -66 -13 -80 -21 -15 -8 -39 -14 -54 -14 -15 0 -29 -4 -32 -9 -3 -4
-28 -11 -55 -15 -28 -4 -53 -11 -56 -16 -3 -5 -30 -12 -60 -15 -31 -4 -58 -11
-60 -16 -3 -4 -27 -11 -53 -15 -26 -3 -51 -10 -57 -14 -5 -5 -28 -11 -50 -15
-22 -4 -44 -11 -50 -15 -5 -5 -28 -11 -50 -15 -38 -6 -69 -17 -108 -37 -10 -5
-22 -6 -27 -3 -5 3 -11 1 -15 -5 -3 -5 -17 -10 -29 -10 -13 0 -37 -7 -52 -15
-16 -8 -41 -15 -56 -15 -15 0 -29 -4 -33 -9 -3 -5 -36 -13 -73 -16 -37 -4 -71
-11 -77 -15 -5 -4 -52 -11 -103 -15 -50 -4 -94 -11 -97 -15 -3 -4 -52 -11
-110 -15 -58 -4 -105 -11 -105 -15 0 -4 -46 -11 -102 -15 -57 -4 -108 -11
-113 -15 -6 -5 -52 -12 -103 -16 -51 -4 -92 -10 -92 -14 0 -4 -47 -11 -105
-15 -58 -4 -107 -10 -110 -15 -2 -4 -46 -11 -97 -15 -51 -5 -96 -9 -100 -9 -3
-1 -10 -4 -14 -8 -4 -5 -25 -8 -46 -8 -21 0 -46 -4 -56 -10 -9 -5 -43 -12 -74
-15 -32 -4 -58 -10 -58 -15 0 -5 -13 -11 -30 -15 -45 -10 -157 -71 -196 -106
-11 -10 -26 -19 -32 -19 -15 0 -232 -219 -232 -235 0 -6 -9 -20 -20 -30 -11
-10 -20 -24 -20 -32 0 -7 -4 -13 -9 -13 -6 0 -13 -20 -17 -45 -3 -25 -10 -45
-15 -45 -5 0 -9 -11 -9 -25 0 -14 -5 -25 -10 -25 -6 0 -8 -10 -4 -24 3 -13 1
-27 -5 -30 -6 -4 -11 -20 -11 -36 0 -16 -5 -32 -11 -36 -6 -3 -9 -15 -6 -25 3
-10 1 -22 -4 -25 -5 -3 -9 -23 -9 -45 0 -21 -4 -39 -9 -39 -5 0 -12 -40 -16
-90 -4 -49 -11 -90 -15 -90 -4 0 -11 -66 -15 -147 -4 -82 -11 -153 -15 -158
-5 -6 -12 -109 -16 -230 -3 -121 -10 -224 -14 -230 -4 -5 -10 -109 -14 -230
-5 -141 -11 -224 -19 -233 -16 -20 -95 -8 -124 20 -17 16 -23 33 -23 63 0 22
5 46 10 51 6 6 13 125 16 295 4 156 10 289 14 294 4 6 10 111 14 235 4 123 11
229 16 234 6 6 10 34 10 63 0 29 4 53 9 53 4 0 7 18 6 40 -1 22 2 43 6 46 5 3
9 20 9 39 0 19 4 36 9 39 5 3 12 33 16 66 4 33 11 60 15 60 5 0 12 20 16 45 3
25 10 45 15 45 5 0 9 10 9 23 0 12 6 31 14 42 7 11 17 35 21 53 3 17 10 32 15
32 5 0 11 14 15 30 4 17 10 30 15 30 4 0 10 8 14 18 8 23 24 49 68 104 21 26
38 50 38 55 0 10 132 143 143 143 5 0 23 11 41 25 18 14 38 25 44 25 6 0 32
11 58 25 26 14 65 28 86 31 21 4 38 10 38 15 0 4 21 11 48 15 26 3 52 10 58
15 6 5 33 12 60 15 27 4 54 11 60 15 6 5 43 12 82 15 40 4 72 10 72 14 0 5 42
11 93 15 50 4 97 11 102 15 6 5 69 11 140 15 72 4 135 11 140 15 6 4 61 11
123 15 62 4 115 11 118 16 3 5 32 9 64 9 32 0 61 4 64 9 3 5 36 12 73 16 38 4
73 10 78 15 6 4 33 11 60 15 28 4 55 10 60 15 6 4 31 11 57 14 26 4 50 11 53
15 2 5 35 12 72 16 38 4 73 10 78 15 6 4 33 11 60 15 28 4 55 10 60 15 6 4 33
11 60 15 28 4 55 10 60 15 6 4 32 11 59 15 27 3 56 11 65 15 9 5 42 12 73 15
32 4 60 11 63 16 4 5 21 9 40 9 19 0 36 4 40 9 3 5 34 13 70 16 36 4 67 11 70
15 3 5 40 11 83 15 42 4 82 11 87 16 12 9 78 14 208 17 71 2 87 -1 87 -13z
m215 -175 c3 -5 14 -10 23 -10 20 0 105 -84 117 -115 5 -11 9 -39 9 -62 1 -23
5 -45 9 -49 8 -9 10 -208 1 -216 -3 -4 -6 -47 -6 -97 0 -51 -5 -94 -9 -97 -5
-3 -9 -30 -9 -60 0 -33 -4 -54 -11 -54 -7 0 -9 -10 -7 -25 3 -14 1 -28 -3 -31
-5 -3 -9 -20 -9 -38 0 -17 -4 -36 -10 -42 -5 -5 -12 -47 -16 -94 -4 -47 -12
-88 -18 -92 -16 -10 -13 -1041 3 -1046 14 -5 16 -348 1 -357 -5 -3 -10 -18
-10 -33 0 -15 -9 -44 -20 -65 -11 -20 -20 -42 -20 -48 0 -18 -121 -132 -160
-151 -83 -40 -131 -58 -154 -58 -15 0 -26 -4 -26 -10 0 -5 -17 -12 -37 -15
-21 -4 -47 -10 -58 -15 -11 -5 -39 -12 -62 -15 -24 -4 -45 -10 -48 -15 -3 -4
-25 -11 -50 -14 -25 -4 -57 -14 -73 -22 -15 -7 -35 -14 -45 -14 -9 0 -25 -4
-35 -9 -9 -4 -33 -15 -52 -23 -19 -8 -46 -20 -60 -26 -14 -6 -44 -14 -67 -17
-24 -4 -45 -11 -48 -15 -3 -5 -26 -12 -52 -16 -25 -4 -58 -13 -72 -20 -14 -8
-38 -14 -53 -14 -15 0 -30 -4 -33 -10 -3 -5 -28 -12 -56 -16 -27 -4 -52 -10
-55 -15 -2 -5 -27 -11 -54 -15 -28 -4 -50 -10 -50 -15 0 -4 -20 -11 -45 -15
-25 -3 -45 -10 -45 -14 0 -4 -22 -10 -50 -14 -27 -4 -52 -10 -54 -15 -3 -5
-28 -11 -55 -15 -28 -4 -53 -11 -56 -16 -3 -6 -17 -10 -30 -10 -13 0 -27 -5
-30 -11 -4 -6 -13 -8 -21 -5 -7 3 -16 1 -19 -4 -4 -6 -19 -10 -35 -10 -16 0
-32 -4 -35 -10 -3 -5 -28 -12 -55 -16 -28 -4 -50 -10 -50 -14 0 -4 -21 -11
-47 -15 -27 -4 -52 -10 -58 -15 -5 -4 -31 -11 -57 -14 -26 -4 -50 -11 -53 -16
-3 -5 -30 -12 -60 -15 -31 -4 -58 -11 -61 -16 -2 -5 -27 -11 -55 -15 -27 -4
-52 -10 -54 -15 -3 -4 -30 -11 -60 -14 -31 -4 -58 -11 -60 -15 -3 -5 -30 -12
-60 -15 -31 -4 -58 -11 -61 -16 -3 -5 -18 -9 -33 -9 -15 0 -31 -3 -35 -7 -7
-8 -20 -11 -81 -20 -22 -3 -44 -9 -50 -13 -5 -5 -37 -11 -70 -15 -33 -4 -65
-11 -71 -16 -6 -5 -37 -11 -70 -15 -32 -4 -65 -12 -72 -17 -20 -16 -263 -15
-282 0 -60 47 -110 98 -110 110 0 7 -6 16 -14 19 -8 3 -17 17 -21 32 -4 15
-10 29 -13 32 -22 17 -42 74 -42 122 0 30 -5 59 -10 64 -6 6 -13 124 -17 287
-3 153 -10 280 -15 283 -11 7 -11 184 0 184 5 0 12 118 15 261 3 165 10 266
16 272 6 6 11 39 11 73 0 35 4 65 8 68 5 3 7 30 4 59 -3 34 0 57 7 61 6 4 11
29 11 56 0 27 5 52 11 56 6 3 9 20 7 36 -3 16 -1 31 4 34 4 3 8 25 8 49 0 24
4 46 9 49 5 3 12 35 16 71 3 36 10 65 14 65 5 0 11 25 14 57 3 31 10 59 15 62
6 3 13 32 17 64 4 31 11 59 15 62 5 3 11 28 15 55 4 28 11 50 16 50 5 0 9 10
9 21 0 21 120 149 139 149 4 0 16 9 26 20 10 11 22 20 27 20 5 0 19 9 31 20
12 12 32 23 44 26 13 4 23 10 23 14 0 5 13 11 30 15 16 4 30 11 30 15 0 5 16
12 35 16 19 3 38 10 40 15 3 4 26 11 50 15 25 3 45 10 45 14 0 4 27 11 60 15
33 4 60 11 60 15 0 4 36 11 80 15 44 4 82 11 85 15 3 4 60 11 127 15 68 4 128
11 133 15 6 4 64 11 130 15 66 4 125 10 130 15 6 4 39 10 75 14 82 8 98 10
106 19 4 4 20 7 35 7 15 0 30 4 34 9 3 5 30 13 60 16 31 4 57 11 60 15 3 5 33
11 67 15 35 4 68 11 73 15 6 4 35 10 65 14 30 4 59 11 65 15 5 5 37 11 69 15
33 4 64 10 70 15 6 5 35 12 63 16 29 4 55 11 58 15 3 5 27 12 53 16 26 3 52
10 57 14 6 4 34 11 62 15 29 4 55 11 58 16 3 4 28 11 56 15 27 4 52 11 55 15
3 5 16 9 29 9 13 0 26 4 29 9 3 4 28 11 55 15 28 4 53 11 56 16 3 5 31 11 63
15 31 3 64 10 74 15 9 5 40 12 70 16 29 4 58 10 64 15 11 9 97 23 252 42 50 6
92 14 92 19 0 12 58 10 65 -2z m-5141 -348 c-1 -73 -6 -138 -12 -145 -5 -6
-13 -39 -17 -72 -9 -79 -21 -93 -52 -64 -19 19 -23 33 -23 80 0 32 5 61 10 64
6 3 10 21 10 40 0 19 5 37 10 40 6 3 7 17 4 30 -3 12 -1 26 5 29 6 4 11 22 11
41 0 19 5 37 10 40 6 3 10 17 10 31 0 19 5 25 18 22 15 -3 17 -17 16 -136z
m1205 -2723 c1 -140 -5 -199 -20 -199 -5 0 -9 14 -9 30 0 17 -4 30 -10 30 -6
0 -10 55 -10 144 0 86 4 147 10 151 6 3 10 21 10 39 0 18 3 36 8 40 11 12 20
-85 21 -235z"/>
</g>
</svg>
